<?xml version="1.0" encoding="UTF-8"?>
<!-- SPDX-FileCopyrightText: 2026 Mattia Egloff <mattia.egloff@pm.me> -->
<!-- SPDX-License-Identifier: GPL-3.0-or-later -->
<svg xmlns="http://www.w3.org/2000/svg" viewBox="0 0 24 24" width="24" height="24" fill="none" stroke="currentColor" stroke-width="1.6" stroke-linecap="round" stroke-linejoin="round" aria-hidden="true">
  <rect x="1.8" y="1.8" width="3.2" height="3.2" rx="0.5"/>
  <circle cx="3.4000000000000004" cy="3.4000000000000004" r="0.5" fill="currentColor" stroke="none"/>
  <rect x="7.2" y="1.8" width="3.2" height="3.2" rx="0.5"/>
  <circle cx="8.8" cy="3.4000000000000004" r="0.5" fill="currentColor" stroke="none"/>
  <rect x="1.8" y="7.2" width="3.2" height="3.2" rx="0.5"/>
  <circle cx="3.4000000000000004" cy="8.8" r="0.5" fill="currentColor" stroke="none"/>
  <circle cx="8.8" cy="8.8" r="0.75" fill="currentColor" stroke="none"/>
  <rect x="13.6" y="13.6" width="3.2" height="3.2" rx="0.5"/>
  <circle cx="15.2" cy="15.2" r="0.5" fill="currentColor" stroke="none"/>
  <rect x="19.0" y="13.6" width="3.2" height="3.2" rx="0.5"/>
  <circle cx="20.6" cy="15.2" r="0.5" fill="currentColor" stroke="none"/>
  <rect x="13.6" y="19.0" width="3.2" height="3.2" rx="0.5"/>
  <circle cx="15.2" cy="20.6" r="0.5" fill="currentColor" stroke="none"/>
  <circle cx="20.6" cy="20.6" r="0.75" fill="currentColor" stroke="none"/>
  <path d="M14 4.6h3.6a2.4 2.4 0 0 1 2.4 2.4v3.4M18.2 8.6l1.8 1.8 1.8-1.8M10 19.4H6.4A2.4 2.4 0 0 1 4 17v-3.4M5.8 15.4 4 13.6l-1.8 1.8"/>
</svg>
